<svg width="104" height="44" viewBox="0 0 104 44" fill="none" xmlns="http://www.w3.org/2000/svg">
<circle cx="102" cy="2" r="2" transform="rotate(90 102 2)" fill="#F2F2F2"/>
<circle cx="82" cy="2" r="2" transform="rotate(90 82 2)" fill="#F2F2F2"/>
<circle cx="62" cy="2" r="2" transform="rotate(90 62 2)" fill="#F2F2F2"/>
<circle cx="42" cy="2" r="2" transform="rotate(90 42 2)" fill="#F2F2F2"/>
<circle cx="22" cy="2" r="2" transform="rotate(90 22 2)" fill="#F2F2F2"/>
<circle cx="2" cy="2" r="2" transform="rotate(90 2 2)" fill="#F2F2F2"/>
<circle cx="102" cy="22" r="2" transform="rotate(90 102 22)" fill="#F2F2F2"/>
<circle cx="82" cy="22" r="2" transform="rotate(90 82 22)" fill="#F2F2F2"/>
<circle cx="62" cy="22" r="2" transform="rotate(90 62 22)" fill="#F2F2F2"/>
<circle cx="42" cy="22" r="2" transform="rotate(90 42 22)" fill="#F2F2F2"/>
<circle cx="22" cy="22" r="2" transform="rotate(90 22 22)" fill="#F2F2F2"/>
<circle cx="2" cy="22" r="2" transform="rotate(90 2 22)" fill="#F2F2F2"/>
<circle cx="102" cy="42" r="2" transform="rotate(90 102 42)" fill="#F2F2F2"/>
<circle cx="82" cy="42" r="2" transform="rotate(90 82 42)" fill="#F2F2F2"/>
<circle cx="62" cy="42" r="2" transform="rotate(90 62 42)" fill="#F2F2F2"/>
<circle cx="42" cy="42" r="2" transform="rotate(90 42 42)" fill="#F2F2F2"/>
<circle cx="22" cy="42" r="2" transform="rotate(90 22 42)" fill="#F2F2F2"/>
<circle cx="2" cy="42" r="2" transform="rotate(90 2 42)" fill="#F2F2F2"/>
</svg>
