<svg width="83" height="83" viewBox="0 0 83 83" fill="none" xmlns="http://www.w3.org/2000/svg">
<g filter="url(#filter0_d)">
<g filter="url(#filter1_d)">
<circle cx="35.197" cy="41.197" r="25.197" fill="url(#paint0_linear)"/>
</g>
<path d="M31.5824 42.8723C32.32 42.7889 33.0577 42.7176 33.7953 42.6423C34.1641 42.6059 34.5329 42.5656 34.9017 42.5333L36.0082 42.4323L38.221 42.2318L40.4339 42.0462L39.6502 42.9342L39.622 42.797L39.5874 42.6409C39.5631 42.5359 39.5362 42.4296 39.5068 42.3233C39.4491 42.1121 39.3825 41.9022 39.3096 41.6963C39.161 41.2859 38.9843 40.8916 38.7807 40.527C38.5719 40.1637 38.344 39.8313 38.1199 39.5084C37.8945 39.1868 37.6422 38.8921 37.3451 38.6593C37.0506 38.4238 36.7291 38.2328 36.3834 38.0901C36.0351 37.9502 35.6637 37.8573 35.2795 37.8035L34.9875 37.7712C34.8889 37.7645 34.789 37.7631 34.6904 37.7591L34.5419 37.7537C34.5022 37.7537 34.5867 37.7524 34.5739 37.7524H34.5637L34.5419 37.7537L34.4983 37.7551L34.4113 37.7591L34.0642 37.7739C33.9784 37.7874 33.8926 37.7995 33.8081 37.8102C33.7646 37.817 33.7249 37.8183 33.6775 37.8291L33.5379 37.86C33.4457 37.8829 33.3496 37.895 33.26 37.926L32.9885 38.0107C32.6325 38.1426 32.2919 38.3121 31.9756 38.5261C31.6644 38.7481 31.3762 39.0078 31.1188 39.3012C30.8602 39.5945 30.645 39.9309 30.458 40.2848C30.4145 40.3749 30.3633 40.461 30.3261 40.5552L30.2083 40.8338C30.143 41.0249 30.07 41.2146 30.0239 41.4124C29.8088 42.1969 29.7742 43.0338 29.9023 43.8318C29.9727 44.23 30.0828 44.6176 30.2301 44.989C30.3863 45.3563 30.581 45.7021 30.8077 46.0278C31.0458 46.344 31.3096 46.64 31.608 46.9024L31.6349 46.928L31.649 46.9401C31.6003 46.8997 31.64 46.9333 31.6324 46.9253L31.6413 46.932L31.7105 46.9872L31.8488 47.0975C31.8936 47.1325 31.9435 47.1755 31.9845 47.2038L32.0985 47.2818C32.2394 47.3868 32.4212 47.4945 32.5928 47.5967C33.2984 47.9896 34.0796 48.2614 34.894 48.3879C35.7059 48.5238 36.546 48.5171 37.3656 48.3973L37.3848 48.3947L37.3951 48.3933C37.3887 48.3947 37.4219 48.3893 37.3835 48.396L37.4258 48.3879L37.5116 48.3731L37.6832 48.3422C37.8048 48.322 37.8958 48.2991 37.9931 48.2776C38.1826 48.2386 38.3952 48.178 38.5975 48.1228C39.0048 48.0058 39.4069 47.8564 39.8039 47.6882C40.5978 47.3532 41.3636 46.9212 42.0987 46.4261C42.4662 46.1771 42.8261 45.9147 43.1782 45.6375C43.5419 45.3482 43.8723 45.0684 44.2155 44.7629C45.5742 43.5478 46.8305 42.1592 48.1073 40.745L48.0061 42.0946C47.2749 40.9764 46.4066 39.9538 45.4334 39.0536C44.4601 38.152 43.3831 37.3716 42.237 36.7297L42.1832 36.6988C42.1627 36.688 42.2037 36.7095 42.196 36.7055L42.1883 36.7015L42.1743 36.6934L42.1448 36.6786L42.0295 36.618L41.7978 36.4969C41.6441 36.4162 41.4866 36.3314 41.347 36.2695L40.9167 36.0677L40.4659 35.878C39.8602 35.6331 39.2442 35.4124 38.6142 35.2442C37.3592 34.9024 36.0594 34.7006 34.7788 34.6871L34.6507 34.6885L34.5483 34.6912L34.2896 34.6979L33.7722 34.7113C33.4931 34.7248 33.1614 34.7584 32.8451 34.7988C32.2073 34.8863 31.567 35.0154 30.937 35.1836C30.3069 35.3518 29.6858 35.5577 29.075 35.7959C28.4667 36.0394 27.8725 36.3193 27.2924 36.6261L26.8634 36.8697L26.6495 36.9921L26.4421 37.1199C26.1309 37.3097 25.8837 37.4792 25.6135 37.6649C25.0731 38.0444 24.5532 38.4561 24.0589 38.8988C23.5646 39.3429 23.0869 39.8098 22.663 40.3292C22.2392 40.8459 21.7589 41.3128 21.3299 41.8349L21.3914 40.7517C21.5796 41.1688 21.7833 41.5806 22.0022 41.9843C22.1124 42.1861 22.2264 42.3852 22.3442 42.583C22.4633 42.7808 22.5849 42.976 22.7104 43.1697C22.8372 43.3621 22.9665 43.5532 23.0997 43.7416C23.2342 43.9286 23.3699 44.1157 23.5121 44.2973C23.6504 44.483 23.7964 44.6633 23.9424 44.8423C24.0896 45.0213 24.2407 45.1962 24.3944 45.3711C24.543 45.5353 24.7171 45.725 24.8708 45.8824C25.0283 46.0479 25.1961 46.2108 25.3638 46.3722C25.5316 46.5337 25.7045 46.6898 25.8786 46.8445C26.0553 46.9966 26.2321 47.1486 26.4126 47.2966C26.7738 47.5927 27.1477 47.8753 27.5332 48.143C27.9199 48.4081 28.3156 48.6624 28.7216 48.9019C27.8328 48.6059 26.9659 48.2197 26.1271 47.7649L25.8133 47.59L25.5047 47.4056C25.3011 47.2792 25.0975 47.1513 24.8964 47.0168C24.6953 46.8809 24.4981 46.7463 24.2996 46.5996C24.0935 46.4503 23.9206 46.3171 23.7208 46.1596C23.53 46.0076 23.3418 45.8528 23.1561 45.6914C22.9704 45.5312 22.786 45.3684 22.608 45.1989C22.4287 45.0293 22.2545 44.8544 22.0816 44.6781C21.9088 44.5005 21.741 44.3189 21.5745 44.1332C21.4093 43.9475 21.2467 43.7577 21.0866 43.5653C20.9278 43.3716 20.7729 43.1765 20.6205 42.976C20.317 42.5763 20.0276 42.1619 19.7535 41.7353L19.4487 41.2549L19.8214 40.6535C20.2158 40.0157 20.6205 39.3684 21.1404 38.8288C21.6578 38.2906 22.1777 37.7551 22.7335 37.2599C23.288 36.7634 23.8706 36.3018 24.4764 35.8766C24.7811 35.664 25.1141 35.442 25.3997 35.2684L25.6379 35.1204L25.8773 34.9832L26.3588 34.7113C27.0094 34.3669 27.674 34.0533 28.354 33.7815C29.0366 33.5151 29.7307 33.285 30.4363 33.0966C31.1419 32.9083 31.859 32.7629 32.5877 32.6634C32.9552 32.6163 33.3112 32.5772 33.7197 32.5584L34.2371 32.5449L34.4958 32.5382L34.6507 32.5355L34.789 32.5369C36.2668 32.5517 37.7139 32.7804 39.1264 33.1639C39.8333 33.3536 40.5248 33.5985 41.2048 33.8744L41.7132 34.0897L42.2268 34.3319C42.4048 34.4126 42.5533 34.4934 42.7083 34.5754L42.9401 34.6965L43.0553 34.7571L43.1334 34.7988L43.1936 34.8338C44.4793 35.5537 45.6869 36.4283 46.7819 37.4429C47.8768 38.4575 48.859 39.6106 49.6888 40.8809L50.1575 41.5994L49.5876 42.2318C48.3109 43.6461 47.006 45.0926 45.5371 46.4072C45.1721 46.7328 44.7803 47.0639 44.4038 47.3626C44.0132 47.6707 43.6111 47.9641 43.1987 48.2439C42.7864 48.5238 42.3587 48.7835 41.9207 49.0271C41.4827 49.2693 41.032 49.494 40.5671 49.6891C40.1022 49.8856 39.6284 50.0605 39.1405 50.2018C38.8934 50.2704 38.6577 50.3377 38.3926 50.3929C38.2633 50.4211 38.1276 50.4521 38.02 50.4696L37.8484 50.5005L37.7626 50.5153L37.7203 50.5234L37.6525 50.5328C36.6357 50.6822 35.5997 50.6889 34.5765 50.5207C33.5545 50.3606 32.5467 50.0188 31.6131 49.4953C31.3814 49.3567 31.1585 49.2262 30.9191 49.0513L30.7436 48.9262C30.6886 48.8858 30.6489 48.8508 30.6002 48.8131L30.4619 48.7028L30.3927 48.6476L30.3492 48.6126L30.33 48.5951L30.2916 48.5602C29.8767 48.1982 29.5027 47.7811 29.1672 47.3303C28.8432 46.8701 28.5653 46.3736 28.3438 45.8488C28.1312 45.32 27.975 44.7696 27.8776 44.2085C27.6958 43.085 27.7483 41.9251 28.0454 40.8351C28.1133 40.5606 28.2093 40.2955 28.3041 40.0291L28.468 39.6389C28.5218 39.5084 28.5922 39.3859 28.6537 39.2594C28.9162 38.7616 29.2235 38.2839 29.5962 37.86C29.9663 37.4362 30.3863 37.0554 30.8448 36.7324C31.3084 36.4162 31.8104 36.1646 32.3303 35.9749L32.7247 35.8511C32.8566 35.808 32.9911 35.7865 33.1255 35.7555L33.3266 35.7125C33.3932 35.6977 33.47 35.6909 33.5405 35.6815L33.9746 35.629L34.3229 35.6142L34.41 35.6102L34.4535 35.6089L34.4753 35.6075H34.4855C34.4804 35.6075 34.5726 35.6062 34.5393 35.6062L34.7378 35.6129C34.871 35.6183 35.0029 35.6196 35.1348 35.6304L35.5356 35.6748C36.0696 35.7501 36.6075 35.882 37.1261 36.0933C37.6435 36.3072 38.1378 36.5992 38.5822 36.9544C39.024 37.311 39.4312 37.7147 39.7744 38.1614C40.1202 38.6082 40.3763 39.1141 40.5709 39.6295C40.7669 40.1448 40.9141 40.6683 41.0217 41.1944C41.0742 41.4581 41.1178 41.7219 41.1511 41.9883C41.1677 42.1215 41.1818 42.2547 41.192 42.3906L41.2061 42.5965L41.2151 42.8226L41.2548 43.7793L40.4314 43.7107L38.2185 43.525L36.0056 43.3245L34.8992 43.2235C34.5304 43.1913 34.1615 43.1509 33.7927 43.1146C33.0577 43.0271 32.32 42.9558 31.5824 42.8723Z" fill="white"/>
</g>
<defs>
<filter id="filter0_d" x="0" y="0" width="82.3939" height="82.3939" filterUnits="userSpaceOnUse" color-interpolation-filters="sRGB">
<feFlood flood-opacity="0" result="BackgroundImageFix"/>
<feColorMatrix in="SourceAlpha" type="matrix" values="0 0 0 0 0 0 0 0 0 0 0 0 0 0 0 0 0 0 127 0" result="hardAlpha"/>
<feOffset dx="6"/>
<feGaussianBlur stdDeviation="8"/>
<feColorMatrix type="matrix" values="0 0 0 0 0 0 0 0 0 0 0 0 0 0 0 0 0 0 0.37 0"/>
<feBlend mode="normal" in2="BackgroundImageFix" result="effect1_dropShadow"/>
<feBlend mode="normal" in="SourceGraphic" in2="effect1_dropShadow" result="shape"/>
</filter>
<filter id="filter1_d" x="10" y="16" width="53.3939" height="51.3939" filterUnits="userSpaceOnUse" color-interpolation-filters="sRGB">
<feFlood flood-opacity="0" result="BackgroundImageFix"/>
<feColorMatrix in="SourceAlpha" type="matrix" values="0 0 0 0 0 0 0 0 0 0 0 0 0 0 0 0 0 0 127 0" result="hardAlpha"/>
<feOffset dx="3" dy="1"/>
<feColorMatrix type="matrix" values="0 0 0 0 0.0860937 0 0 0 0 0.18463 0 0 0 0 0.7125 0 0 0 1 0"/>
<feBlend mode="normal" in2="BackgroundImageFix" result="effect1_dropShadow"/>
<feBlend mode="normal" in="SourceGraphic" in2="effect1_dropShadow" result="shape"/>
</filter>
<linearGradient id="paint0_linear" x1="40.7088" y1="44.3466" x2="-35.2758" y2="-32.4254" gradientUnits="userSpaceOnUse">
<stop stop-color="#2F4BE1"/>
<stop offset="1" stop-color="white"/>
</linearGradient>
</defs>
</svg>
